<svg width="29" height="21" viewBox="0 0 29 21" fill="none" xmlns="http://www.w3.org/2000/svg">
<path d="M0 1.45833C0 1.07156 0.153645 0.700627 0.427136 0.427136C0.700626 0.153646 1.07156 0 1.45833 0H27.7083C28.0951 0 28.466 0.153646 28.7395 0.427136C29.013 0.700627 29.1667 1.07156 29.1667 1.45833C29.1667 1.84511 29.013 2.21604 28.7395 2.48953C28.466 2.76302 28.0951 2.91667 27.7083 2.91667H1.45833C1.07156 2.91667 0.700626 2.76302 0.427136 2.48953C0.153645 2.21604 0 1.84511 0 1.45833ZM0 10.255C0 9.86823 0.153645 9.49729 0.427136 9.2238C0.700626 8.95031 1.07156 8.79667 1.45833 8.79667H27.7083C28.0951 8.79667 28.466 8.95031 28.7395 9.2238C29.013 9.49729 29.1667 9.86823 29.1667 10.255C29.1667 10.6418 29.013 11.0127 28.7395 11.2862C28.466 11.5597 28.0951 11.7133 27.7083 11.7133H1.45833C1.07156 11.7133 0.700626 11.5597 0.427136 11.2862C0.153645 11.0127 0 10.6418 0 10.255ZM1.45833 17.5948C1.07156 17.5948 0.700626 17.7484 0.427136 18.0219C0.153645 18.2954 0 18.6664 0 19.0531C0 19.4399 0.153645 19.8108 0.427136 20.0843C0.700626 20.3578 1.07156 20.5115 1.45833 20.5115H27.7083C28.0951 20.5115 28.466 20.3578 28.7395 20.0843C29.013 19.8108 29.1667 19.4399 29.1667 19.0531C29.1667 18.6664 29.013 18.2954 28.7395 18.0219C28.466 17.7484 28.0951 17.5948 27.7083 17.5948H1.45833Z" fill="#FFBE82"/>
</svg>
